<svg width="772" height="148" viewBox="0 0 772 148" fill="none" xmlns="http://www.w3.org/2000/svg">
<mask id="mask0_2539_2397" style="mask-type:alpha" maskUnits="userSpaceOnUse" x="0" y="0" width="772" height="148">
<rect width="772" height="148" fill="#D9D9D9"/>
</mask>
<g mask="url(#mask0_2539_2397)">
<path d="M158.467 21.6219C158.467 23.7574 156.348 25.5576 152.128 27.0401C147.908 28.5226 142.725 29.2639 136.632 29.2639C130.538 29.2639 122.852 28.4167 113.729 26.7224C108.914 29.2462 104.501 32.9878 100.509 37.9471C96.5166 42.9064 92.2267 49.913 87.6391 58.9845C83.0514 68.056 79.707 74.1096 77.5708 77.1276C75.4346 80.1455 72.5104 83.0752 68.7983 85.9167C58.9752 93.2586 48.7669 96.9296 38.2084 96.9296C32.5702 96.9296 27.9651 95.7295 24.3756 93.3116C20.786 90.9113 19 87.7875 19 83.9577C19 82.0163 19.5603 80.375 20.6985 78.9807C21.8366 77.6041 23.1849 76.9158 24.7433 76.9158C27.2822 76.9158 28.5604 78.2571 28.5604 80.9397C28.5604 82.2104 28.1752 83.287 27.3873 84.1871C26.5993 85.0872 25.6363 85.5461 24.5156 85.5461C22.6771 85.5461 21.7491 84.646 21.7491 82.8281C21.7491 81.8751 21.5915 81.4162 21.2763 81.4162C20.6109 81.4162 20.2782 82.3869 20.2782 84.3106C20.2782 87.5051 21.9067 90.2054 25.181 92.4115C28.4554 94.6176 32.4652 95.7294 37.2454 95.7294C47.7338 95.7294 57.1542 90.9466 65.489 81.3986C69.4112 76.9334 74.454 69.5739 80.6351 59.3199C90.7383 42.6594 101.279 31.7171 112.293 26.4577C110.174 26.1047 107.005 25.4517 102.785 24.4987C92.8395 22.3279 85.2227 21.2513 79.9347 21.2513C79.3919 21.2513 77.7459 21.3219 74.9969 21.4807C76.8354 24.9575 77.7634 28.9285 77.7634 33.376C77.7634 42.0593 74.4891 50.2131 67.9579 57.8197C61.4266 65.444 54.4226 69.2385 46.9984 69.2385C43.8992 69.2385 41.3952 68.1972 39.4516 66.1323C37.508 64.0674 36.545 61.3848 36.545 58.1197C36.545 53.6193 38.2434 48.6423 41.6229 43.1712C45.0023 37.7 49.3973 32.9348 54.7729 28.8403C60.1484 24.7634 66.0493 21.9043 72.4754 20.2806C69.3762 16.0625 64.9812 13.9447 59.2729 13.9447C54.4577 13.9447 49.6074 15.3566 44.6871 18.1804C39.7843 21.0042 35.4594 24.8517 31.7472 29.7227C31.2044 30.4816 30.8367 30.8523 30.6266 30.8523C30.399 30.8523 30.2414 30.7287 30.1538 30.4993C30.1538 29.8286 31.7648 27.8696 34.9691 24.6222C42.6735 16.8744 50.7281 13.0093 59.1503 13.0093C65.6816 13.0093 70.6544 15.3213 74.0513 19.9276C78.7965 18.551 84.2246 17.8627 90.3706 17.8627C93.5399 17.8627 96.4465 18.0568 99.0555 18.4628C101.84 18.904 108.651 20.2453 119.49 22.4867C128.542 18.4981 137.227 16.5037 145.562 16.5037C153.897 16.5037 158.432 18.198 158.432 21.5866L158.467 21.6219ZM75.4871 30.4993C75.4871 27.3401 74.7692 24.4281 73.3159 21.7455C64.5434 23.2103 56.3838 27.7637 48.8195 35.4233C41.2552 43.0829 37.4905 50.619 37.4905 58.0315C37.4905 60.873 38.366 63.2556 40.0995 65.1969C41.833 67.1383 43.9867 68.0914 46.5257 68.0914C53.1444 68.0914 59.6231 63.9792 65.9617 55.7548C72.3003 47.5304 75.4696 39.1119 75.4696 30.5169L75.4871 30.4993ZM157.539 21.7455C157.539 20.5983 156.436 19.6276 154.212 18.851C152.006 18.0569 149.204 17.6686 145.842 17.6686C137.455 17.6686 129.348 19.4511 121.468 22.9985C122.449 23.1574 125.058 23.6339 129.278 24.4104C135.546 25.6282 141.097 26.2459 145.965 26.2459C149.134 26.2459 151.848 25.8047 154.124 24.9223C156.401 24.0398 157.539 22.9809 157.539 21.7631V21.7455Z" fill="white" stroke="white" stroke-width="0.56"/>
<path d="M128.893 75.5739C128.893 75.8915 128.7 76.2445 128.297 76.6328L125.776 80.1273C118.404 90.4519 112.923 95.6053 109.316 95.6053C107.425 95.6053 105.902 94.917 104.694 93.5581C103.503 92.1991 102.908 90.4871 102.908 88.4399C102.908 85.6867 104.396 82.0686 107.373 77.6035C112.03 70.7028 114.359 66.5906 114.359 65.2846C114.359 63.7491 113.554 62.9726 111.943 62.9726C109.597 62.9726 106.375 65.3022 102.312 69.9615C98.3902 74.4267 93.0146 82.8628 86.1682 95.2876C84.995 95.0582 83.997 94.9347 83.174 94.9347C82.351 94.9347 81.1604 95.0582 79.707 95.2876L88.3394 79.5449C89.5126 77.3035 91.3161 73.9855 93.75 69.6086C95.0458 67.473 99.0205 60.6959 105.674 49.2418L114.604 33.9755C115.778 34.205 116.776 34.3285 117.599 34.3285C119.157 34.3285 120.645 34.1344 122.064 33.7461C117.984 40.3291 111.925 50.1948 103.853 63.3432C103.626 63.7315 100.579 68.832 94.7481 78.6095C102.102 67.5966 107.916 62.0901 112.188 62.0901C113.869 62.0901 115.305 62.8137 116.513 64.2786C117.704 65.7435 118.299 67.5083 118.299 69.6086C118.299 72.3265 116.583 76.2622 113.134 81.3803C109.299 87.0986 107.373 90.6989 107.373 92.1461C107.373 93.8404 108.213 94.6876 109.894 94.6876C112.958 94.6876 118.001 89.7106 125.075 79.739L126.896 77.1976L127.947 75.8915C128.14 75.5033 128.385 75.2915 128.647 75.2915C128.805 75.2915 128.875 75.3621 128.875 75.5209L128.893 75.5739Z" fill="white" stroke="white" stroke-width="0.56"/>
<path d="M158.607 75.751C158.607 75.8745 158.257 76.3863 157.556 77.2864L155.035 80.4808C146.928 90.576 139.959 95.6059 134.163 95.6059C131.414 95.6059 129.12 94.5999 127.264 92.6233C125.408 90.6289 124.48 88.1404 124.48 85.1401C124.48 78.0277 129.4 71.78 139.223 66.3794C144.389 63.538 148.591 62.1084 151.848 62.1084C153.266 62.1084 154.457 62.532 155.455 63.3791C156.453 64.2262 156.943 65.2675 156.943 66.4853C156.943 69.3268 155.105 71.7447 151.428 73.739C147.751 75.7333 141.605 77.6041 132.99 79.3337C130.328 83.3929 128.998 86.7991 128.998 89.5171C128.998 92.9056 130.819 94.5999 134.461 94.5999C140.659 94.5999 148.241 88.5111 157.206 76.3334C157.679 75.698 158.064 75.3803 158.379 75.3803C158.537 75.4156 158.607 75.5392 158.607 75.7333V75.751ZM153.652 64.7734C153.652 63.5026 152.969 62.8849 151.603 62.8849C149.519 62.8849 146.788 64.3321 143.408 67.2266C140.029 70.121 136.702 73.8802 133.445 78.5042C139.083 77.0393 143.864 74.9744 147.768 72.3271C151.69 69.6621 153.634 67.156 153.634 64.7734H153.652Z" fill="white" stroke="white" stroke-width="0.56"/>
<path d="M198.074 75.6271C198.074 76.2272 195.903 78.9627 191.543 83.8515C187.078 88.8991 180.985 93.6113 173.263 97.9882L170.268 103.265C164.192 113.713 158.204 121.391 152.303 126.297C146.035 131.468 140.677 134.045 136.212 134.045C132.219 134.045 130.223 132.192 130.223 128.485C130.223 123.95 133.252 119.29 139.328 114.508C142.655 111.896 145.474 109.936 147.786 108.595C151.358 106.548 156.838 103.918 164.227 100.724L165.05 100.3L175.329 81.8925C178.183 76.8802 181.86 70.456 186.378 62.6023C187.481 62.8846 188.391 63.0258 189.144 63.0258C190.247 63.0258 191.683 62.8846 193.487 62.6023C190.352 67.7381 185.625 75.8213 179.269 86.8694L173.858 96.8057C178.901 93.9643 183.016 91.1405 186.202 88.299C189.389 85.4575 192.839 81.5571 196.551 76.5978C197.024 75.8036 197.426 75.4153 197.777 75.4153C197.917 75.4153 198.022 75.4859 198.074 75.6448V75.6271ZM164.578 101.412C153.424 107.13 146.332 111.048 143.321 113.131C135.143 118.814 131.046 124.003 131.046 128.697C131.046 129.968 131.519 131.009 132.464 131.856C133.41 132.704 134.583 133.127 135.984 133.127C140.099 133.127 144.161 130.815 148.206 126.209C151.62 122.344 156.838 114.472 163.895 102.595L164.595 101.412H164.578ZM199.703 51.3423C199.703 52.6836 199.125 53.919 197.969 55.0662C196.814 56.2134 195.553 56.7781 194.187 56.7781C192.576 56.7781 191.771 55.931 191.771 54.2367C191.771 52.9836 192.348 51.7482 193.504 50.5657C194.66 49.3833 195.886 48.7832 197.181 48.7832C198.862 48.7832 199.703 49.6304 199.703 51.3246V51.3423Z" fill="white" stroke="white" stroke-width="0.56"/>
<path d="M232.779 75.6274C232.779 76.2628 231.623 77.7276 229.312 80.0573C225.863 83.5165 222.693 85.246 219.787 85.246C218.579 85.246 217.493 85.0166 216.547 84.5401C211.382 91.9173 206.514 95.6059 201.979 95.6059C199.633 95.6059 197.619 94.6352 195.956 92.6762C194.292 90.7172 193.452 88.3875 193.452 85.6696C193.452 79.5984 197.409 73.739 205.324 68.0914C210.874 64.1027 215.462 62.1084 219.069 62.1084C222.431 62.1084 224.112 63.9262 224.112 67.5619C224.112 72.0976 221.748 77.5688 217.003 83.9577C217.791 84.4342 218.666 84.6636 219.647 84.6636C221.415 84.6636 223.464 83.8341 225.828 82.1928C228.174 80.5338 230.1 78.5571 231.606 76.2275C232.044 75.6804 232.359 75.398 232.552 75.398C232.709 75.398 232.779 75.4686 232.779 75.6274ZM223.236 67.6678C223.236 64.4733 221.8 62.8673 218.946 62.8673C215.392 62.8673 211.032 66.3088 205.901 73.1742C200.771 80.0396 198.214 85.8285 198.214 90.523C198.214 93.241 199.51 94.5999 202.084 94.5999C206.322 94.5999 210.927 91.0878 215.952 84.0636C214.814 82.7928 214.254 81.5045 214.254 80.1632C214.254 78.2218 215.024 76.2451 216.547 74.1802C218.071 72.1329 219.559 71.1093 221.012 71.1093C221.643 71.1093 222.063 71.4976 222.308 72.2918C222.939 70.9152 223.254 69.3797 223.254 67.6678H223.236Z" fill="white" stroke="white" stroke-width="0.56"/>
<path d="M269.848 75.7502C269.848 76.3326 267.694 79.0329 263.386 83.8511C258.606 89.1281 252.373 93.8933 244.686 98.1643L241.814 103.371C236.141 113.625 230.205 121.267 224.024 126.279C217.65 131.45 212.1 134.027 207.407 134.027C205.796 134.027 204.465 133.515 203.38 132.491C202.312 131.468 201.769 130.197 201.769 128.697C201.769 120.772 210.839 112.548 228.962 104.077C230.45 103.335 232.674 102.276 235.651 100.935L236.526 100.406L246.857 81.8744C242.777 87.522 239.836 91.2106 237.997 92.9755C236.158 94.7228 234.302 95.6052 232.411 95.6052C230.8 95.6052 229.4 94.9169 228.209 93.5403C227.018 92.1637 226.423 90.54 226.423 88.6868C226.423 86.4278 227.806 82.9333 230.59 78.1505L239.643 62.7607C240.536 62.9195 241.587 62.9901 242.76 62.9901C243.775 62.9901 245.194 62.8489 246.98 62.5665L235.406 81.5038C232.114 86.869 230.468 90.3811 230.468 92.0401C230.468 93.8227 231.273 94.7051 232.884 94.7051C237.104 94.7051 243.618 87.1514 252.39 72.0263L257.801 62.7254C258.694 62.8842 259.797 62.9548 261.093 62.9548C262.143 62.9548 263.457 62.8136 265.032 62.5312C260.182 70.3144 253.598 81.7155 245.299 96.7524C250.079 94.2639 254.124 91.5813 257.416 88.6868C260.707 85.7924 264.385 81.6979 268.464 76.4209C269.007 75.7149 269.357 75.362 269.515 75.362C269.743 75.362 269.865 75.4855 269.865 75.7149L269.848 75.7502ZM235.931 101.412C235.301 101.765 233.094 102.894 229.295 104.783C211.487 113.695 202.574 121.708 202.574 128.82C202.574 131.785 204.22 133.268 207.512 133.268C211.662 133.268 215.794 130.991 219.909 126.455C224.024 121.92 229.102 113.96 235.178 102.594L235.948 101.412H235.931Z" fill="white" stroke="white" stroke-width="0.56"/>
<path d="M311.294 75.6976C311.259 75.8212 311.066 76.1389 310.698 76.6507L308.177 80.1451C300.805 90.4697 295.184 95.6232 291.297 95.6232C289.459 95.6232 287.918 94.9525 286.675 93.6465C285.431 92.3228 284.819 90.6815 284.819 88.7048C284.819 86.4105 286.167 82.9513 288.863 78.292L298.021 62.6022C299.229 62.8846 300.192 63.0258 300.893 63.0258C301.943 63.0258 303.432 62.8846 305.358 62.6022L292.033 84.6809C290.107 87.8753 289.161 90.3462 289.161 92.0758C289.161 93.8053 290.089 94.7407 291.928 94.7407C295.412 94.7407 301.558 88.4754 310.331 75.9447C310.523 75.5564 310.716 75.3623 310.926 75.3623C311.154 75.3623 311.276 75.4858 311.276 75.7153L311.294 75.6976ZM310.436 51.2187C310.436 52.5953 309.858 53.8837 308.702 55.1014C307.547 56.3015 306.286 56.9016 304.92 56.9016C303.152 56.9016 302.276 56.0192 302.276 54.2366C302.276 52.9306 302.889 51.6775 304.097 50.4774C305.305 49.2773 306.583 48.6772 307.914 48.6772C309.595 48.6772 310.436 49.5244 310.436 51.2187Z" fill="white" stroke="white" stroke-width="0.56"/>
<path d="M331.238 52.7362C331.238 54.3069 328.786 57.4308 323.901 62.1254C323.673 63.3431 323.551 64.4197 323.551 65.3198C323.551 67.6142 324.584 71.2322 326.667 76.2092C327.718 78.6976 328.261 80.7802 328.261 82.4745C328.261 86.0219 326.545 89.1105 323.113 91.7048C319.681 94.2992 315.619 95.6052 310.926 95.6052C308.265 95.6052 306.146 94.8463 304.552 93.3285C302.959 91.8107 302.171 89.7635 302.171 87.2044C302.171 84.2394 303.222 81.3626 305.305 78.5565C307.407 75.7503 309.56 74.356 311.802 74.356C312.187 74.356 312.537 74.4266 312.852 74.5855L317.545 68.779C318.963 67.0847 320.837 64.7374 323.183 61.7371C323.848 58.9839 324.864 56.6013 326.23 54.6423C327.595 52.6832 328.944 51.6772 330.275 51.6772C330.905 51.6772 331.22 52.0302 331.22 52.7185L331.238 52.7362ZM323.078 76.0856C323.078 74.9031 323.043 73.7207 322.955 72.5558C322.868 71.391 322.833 69.732 322.833 67.5612C322.833 65.7787 322.903 64.3138 323.06 63.1137C320.872 65.9199 317.702 69.8556 313.553 74.9561C314.288 75.5914 314.673 76.3503 314.673 77.2681C314.673 79.5977 312.782 81.1685 308.982 81.998C307.459 82.351 306.128 83.1981 305.025 84.5218C303.905 85.8454 303.344 87.2397 303.344 88.7045C303.344 90.2753 303.905 91.599 305.043 92.6755C306.181 93.7345 307.582 94.2816 309.28 94.2816C312.572 94.2816 315.689 92.3579 318.648 88.5104C321.607 84.663 323.078 80.5331 323.078 76.1033V76.0856Z" fill="white" stroke="white" stroke-width="0.56"/>
<path d="M385.238 75.6976C385.238 76.2094 382.472 79.5274 376.956 85.6515C370.915 92.2875 365.785 95.6055 361.565 95.6055C358.816 95.6055 356.47 94.5466 354.508 92.4464C352.547 90.3285 351.567 87.8224 351.567 84.8926C351.567 81.5747 352.898 78.1508 355.559 74.5857C358.221 71.0383 361.81 67.985 366.31 65.4083C370.11 63.2022 373.209 62.0903 375.59 62.0903C378.48 62.0903 379.933 63.8199 379.933 67.2967C379.933 70.0147 379.022 72.7502 377.201 75.4682C375.38 78.1861 373.577 79.545 371.773 79.545C369.97 79.545 369.129 78.6626 369.129 76.8801C369.129 74.7799 370.933 72.8561 374.54 71.0736C377.324 69.697 378.707 67.8792 378.707 65.6201C378.707 63.8376 377.744 62.9551 375.836 62.9551C372.579 62.9551 368.586 66.2025 363.859 72.7149C359.114 79.2274 356.75 84.6985 356.75 89.1107C356.75 92.817 358.466 94.6701 361.915 94.6701C367.326 94.6701 374.645 88.5283 383.908 76.2271C384.415 75.5917 384.783 75.274 385.028 75.274C385.186 75.3093 385.256 75.4329 385.256 75.627L385.238 75.6976Z" fill="white" stroke="white" stroke-width="0.56"/>
<path d="M420.013 75.6274C420.013 76.2628 418.857 77.7276 416.546 80.0573C413.097 83.5165 409.927 85.246 407.021 85.246C405.813 85.246 404.727 85.0166 403.781 84.5401C398.616 91.9173 393.748 95.6059 389.213 95.6059C386.867 95.6059 384.853 94.6352 383.19 92.6762C381.526 90.7172 380.686 88.3875 380.686 85.6696C380.686 79.5984 384.643 73.739 392.54 68.0914C398.091 64.1027 402.678 62.1084 406.285 62.1084C409.647 62.1084 411.328 63.9262 411.328 67.5619C411.328 72.0976 408.964 77.5688 404.219 83.9577C405.007 84.4342 405.883 84.6636 406.863 84.6636C408.632 84.6636 410.68 83.8341 413.044 82.1928C415.39 80.5338 417.317 78.5571 418.822 76.2275C419.26 75.6804 419.575 75.398 419.768 75.398C419.926 75.398 419.996 75.4686 419.996 75.6274H420.013ZM410.47 67.6678C410.47 64.4733 409.034 62.8673 406.18 62.8673C402.608 62.8673 398.266 66.3088 393.135 73.1742C388.005 80.0396 385.449 85.8285 385.449 90.523C385.449 93.241 386.744 94.5999 389.318 94.5999C393.538 94.5999 398.161 91.0878 403.186 84.0636C402.048 82.7928 401.488 81.5045 401.488 80.1632C401.488 78.2218 402.258 76.2451 403.781 74.1802C405.305 72.1329 406.793 71.1093 408.246 71.1093C408.877 71.1093 409.297 71.4976 409.542 72.2918C410.173 70.9152 410.488 69.3797 410.488 67.6678H410.47Z" fill="white" stroke="white" stroke-width="0.56"/>
<path d="M485.43 75.6976C485.395 75.8211 485.203 76.1388 484.835 76.6506L482.314 80.1451C474.942 90.4697 469.496 95.6231 465.959 95.6231C464.121 95.6231 462.615 94.9348 461.442 93.5582C460.269 92.1816 459.673 90.3991 459.673 88.2283C459.673 86.0575 460.409 83.6396 461.897 81.0628C462.177 80.5863 463.595 78.4861 466.187 74.7269C469.479 69.997 471.125 66.8908 471.125 65.426C471.125 63.8023 470.319 62.9904 468.708 62.9904C463.543 62.9904 454.665 73.6856 442.111 95.076C441.323 94.9172 440.255 94.8466 438.889 94.8466C437.278 94.8466 435.912 94.9172 434.774 95.076L443.109 81.7512C448.554 72.9973 451.268 67.6321 451.268 65.6554C451.268 63.8729 450.551 62.9904 449.097 62.9904C446.944 62.9904 443.424 66.1143 438.521 72.3443C433.618 78.5744 428.768 86.1634 423.953 95.076C423.06 94.9172 421.904 94.8466 420.486 94.8466C418.963 94.8466 417.632 94.9172 416.494 95.076L424.898 81.7512C430.694 72.5914 433.583 66.9261 433.583 64.7553C433.583 63.5728 433.128 62.9728 432.235 62.9728C430.309 62.9728 426.334 67.2085 420.293 75.6623C419.908 76.2094 419.593 76.4918 419.348 76.4918C419.19 76.4565 419.12 76.333 419.12 76.1388C419.12 75.7858 420.924 73.3326 424.531 68.7616C428.068 64.3141 430.782 62.0903 432.708 62.0903C433.969 62.0903 435.037 62.6904 435.947 63.8905C436.84 65.0906 437.295 66.5202 437.295 68.1792C437.295 70.4735 436.14 73.6503 433.829 77.7096C440.885 67.2967 446.121 62.0903 449.57 62.0903C451.216 62.0903 452.564 62.761 453.615 64.1023C454.665 65.4436 455.208 67.1203 455.208 69.1322C455.208 71.3736 454.175 74.2504 452.091 77.7096C459.533 67.2967 465.101 62.0903 468.831 62.0903C470.512 62.0903 471.93 62.8139 473.086 64.2788C474.242 65.7436 474.819 67.5085 474.819 69.6087C474.819 72.0619 473.856 74.9211 471.948 78.1861C471.913 78.2214 470.232 80.7452 466.905 85.7574C464.979 88.5989 464.033 90.7697 464.033 92.2699C464.033 93.8936 464.839 94.7054 466.45 94.7054C469.514 94.7054 474.557 89.7284 481.631 79.7568L483.452 77.2154L484.52 75.9094C484.712 75.5211 484.905 75.327 485.115 75.327C485.343 75.327 485.465 75.4505 485.465 75.6799L485.43 75.6976Z" fill="white" stroke="white" stroke-width="0.56"/>
<path d="M505.637 75.6976C505.602 75.8212 505.409 76.1389 505.041 76.6507L502.52 80.1451C495.148 90.4697 489.528 95.6232 485.64 95.6232C483.802 95.6232 482.261 94.9525 481.018 93.6465C479.774 92.3228 479.162 90.6815 479.162 88.7048C479.162 86.4105 480.51 82.9513 483.206 78.292L492.364 62.6022C493.572 62.8846 494.535 63.0258 495.236 63.0258C496.286 63.0258 497.775 62.8846 499.701 62.6022L486.376 84.6809C484.45 87.8753 483.504 90.3462 483.504 92.0758C483.504 93.8053 484.432 94.7407 486.271 94.7407C489.755 94.7407 495.901 88.4754 504.674 75.9447C504.866 75.5564 505.059 75.3623 505.269 75.3623C505.497 75.3623 505.619 75.4858 505.619 75.7153L505.637 75.6976ZM504.779 51.2187C504.779 52.5953 504.201 53.8837 503.045 55.1014C501.89 56.3015 500.629 56.9016 499.263 56.9016C497.495 56.9016 496.619 56.0192 496.619 54.2366C496.619 52.9306 497.232 51.6775 498.44 50.4774C499.648 49.2773 500.927 48.6772 502.257 48.6772C503.938 48.6772 504.779 49.5244 504.779 51.2187Z" fill="white" stroke="white" stroke-width="0.56"/>
<path d="M552.791 75.6975C552.791 76.527 549.955 80.3568 544.264 87.2045C539.589 92.8168 535.929 95.623 533.268 95.623C531.499 95.623 530.028 94.9347 528.82 93.5581C527.63 92.1815 527.034 90.4872 527.034 88.4752C527.034 86.6927 527.402 85.0514 528.12 83.5336C528.838 82.0158 530.729 78.9978 533.793 74.515C536.962 69.7851 538.556 66.7671 538.556 65.4611C538.556 63.8374 537.715 63.0256 536.034 63.0256C530.309 63.0256 521.501 73.7208 509.612 95.1112C507.686 94.9524 506.53 94.8818 506.145 94.8818C504.779 94.8818 503.483 94.9524 502.275 95.1112L511.433 80.4803C516.633 72.1147 519.242 66.8907 519.242 64.7905C519.242 63.608 518.752 63.0079 517.771 63.0079C515.775 63.0079 511.836 67.2613 505.952 75.7681C505.602 76.2799 505.322 76.5623 505.129 76.5976C504.937 76.5976 504.814 76.474 504.779 76.2446C504.814 76.0504 504.902 75.8916 505.007 75.7681L506.127 74.2855C512.133 66.1847 516.161 62.1255 518.244 62.1255C519.575 62.1255 520.713 62.7432 521.659 63.961C522.604 65.1787 523.077 66.6436 523.077 68.3379C523.077 70.8617 521.606 74.3738 518.664 78.8743C523.287 72.4501 526.842 68.0379 529.328 65.6729C531.814 63.308 534.108 62.1255 536.227 62.1255C537.943 62.1255 539.396 62.8314 540.569 64.261C541.743 65.6906 542.338 67.4378 542.338 69.538C542.338 72.1853 540.534 76.2269 536.927 81.6628C533.25 87.2222 531.412 90.7872 531.412 92.3227C531.412 93.9464 532.217 94.7582 533.828 94.7582C537.313 94.7582 543.336 88.4929 551.881 75.9622C552.073 75.5739 552.266 75.3798 552.476 75.3798C552.704 75.3798 552.826 75.5033 552.826 75.7328L552.791 75.6975Z" fill="white" stroke="white" stroke-width="0.56"/>
<path d="M592.977 75.7504C592.977 76.3858 590.858 79.086 586.62 83.8512C581.875 89.1282 575.747 93.8405 568.217 97.988L565.276 103.371C559.953 113.272 553.982 120.914 547.363 126.279C541.025 131.45 535.544 134.027 530.921 134.027C529.24 134.027 527.839 133.515 526.754 132.491C525.668 131.468 525.108 130.197 525.108 128.697C525.108 120.614 534.178 112.389 552.301 104.077C556.223 102.259 558.745 101.041 559.883 100.406L569.863 81.8746C565.521 87.681 562.457 91.4226 560.671 93.0992C558.885 94.7759 557.064 95.623 555.173 95.623C553.141 95.623 551.408 94.7229 549.972 92.9051C548.536 91.0873 547.836 88.8811 547.836 86.2691C547.836 79.439 552.266 73.2443 561.108 67.6849C567.027 63.9786 571.667 62.1255 575.029 62.1255C577.375 62.1255 578.548 63.4315 578.548 66.0259C578.548 66.7318 578.373 67.579 578.023 68.5673L581.315 62.5844C582.365 62.8667 583.294 63.0079 584.081 63.0079C585.097 63.0079 586.585 62.8667 588.547 62.5844C588.266 62.9373 586.55 65.9023 583.381 71.4617L568.813 96.7878C573.943 93.8758 578.041 91.052 581.122 88.334C584.187 85.6161 587.671 81.6981 591.541 76.5622C592.136 75.7681 592.521 75.3798 592.714 75.3798C592.889 75.4151 592.977 75.5386 592.977 75.7328V75.7504ZM559.287 101.412C558.534 101.853 556.328 102.965 552.651 104.783C534.791 113.695 525.878 121.708 525.878 128.82C525.878 130.038 526.334 131.062 527.227 131.891C528.12 132.721 529.275 133.127 530.694 133.127C535.001 133.127 539.186 130.903 543.266 126.473C547.346 122.043 552.441 114.066 558.587 102.594L559.287 101.412ZM577.9 66.0082C577.9 63.9963 576.937 62.9903 575.029 62.9903C571.509 62.9903 566.834 66.5377 561.021 73.6149C555.208 80.6921 552.301 86.4103 552.301 90.7519C552.301 93.3993 553.439 94.7229 555.715 94.7229C557.992 94.7229 561.931 91.2108 567.465 84.1866C574.433 75.3092 577.918 69.2556 577.918 66.0082H577.9Z" fill="white" stroke="white" stroke-width="0.56"/>
<path d="M645.856 34.4701L619.486 76.4391C623.601 70.7562 626.665 66.944 628.714 65.0203C630.745 63.0966 632.689 62.1259 634.527 62.1259C636.716 62.1259 638.52 63.026 639.903 64.8262C641.286 66.6263 641.986 68.8854 641.986 71.6033C641.986 77.5686 638.222 83.4281 630.71 89.1816C625.107 93.4879 620.134 95.6411 615.792 95.6411C613.76 95.6411 612.097 94.8645 610.836 93.2938C609.558 91.7407 608.928 89.711 608.928 87.2226C608.928 84.2576 610.801 79.7394 614.566 73.6682L638.887 34.3643C639.938 34.6819 641.076 34.8408 642.302 34.8408C643.247 34.8408 644.438 34.7172 645.891 34.4878L645.856 34.4701ZM637.697 66.9617C637.697 64.3144 636.593 62.9907 634.405 62.9907C631.551 62.9907 626.665 67.7382 619.784 77.251C614.618 84.3458 612.027 89.1286 612.027 91.5818C612.027 93.682 613.043 94.7233 615.074 94.7233C618.593 94.7233 623.251 91.1759 629.029 84.0987C634.807 77.0215 637.697 71.3033 637.697 66.9617Z" fill="white" stroke="white" stroke-width="0.56"/>
<path d="M687.285 75.6975C687.285 76.527 684.431 80.3568 678.705 87.2045C674.082 92.8168 670.44 95.623 667.761 95.623C665.958 95.623 664.487 94.9347 663.349 93.5757C662.211 92.2168 661.65 90.5049 661.65 88.4576C661.65 86.4103 662.281 84.0101 663.524 81.5392C659.602 87.0633 656.607 90.7872 654.541 92.7286C652.458 94.67 650.444 95.623 648.483 95.623C646.399 95.623 644.666 94.7229 643.247 92.9227C641.847 91.1226 641.129 88.8635 641.129 86.1456C641.129 78.5742 646.434 71.8677 657.045 66.0259C661.703 63.4139 665.468 62.1255 668.322 62.1255C670.756 62.1255 671.964 63.308 671.964 65.6729C671.964 66.3436 671.806 67.226 671.491 68.3379L674.485 62.602C675.658 62.8844 676.691 63.0256 677.602 63.0256C678.653 63.0256 680.036 62.8844 681.717 62.602L671.316 79.9508C667.709 86.022 665.905 90.0283 665.905 91.9697C665.905 93.9111 666.676 94.7582 668.199 94.7582C669.722 94.7582 672.279 92.958 675.728 89.34C679.178 85.722 682.68 81.2745 686.252 75.9622C686.479 75.5739 686.707 75.3798 686.9 75.3798C687.127 75.3798 687.25 75.5033 687.25 75.7328L687.285 75.6975ZM671.106 65.9023C671.106 63.9786 670.23 63.0079 668.462 63.0079C664.855 63.0079 660.127 66.5554 654.279 73.6678C648.43 80.7627 645.506 86.5162 645.506 90.8931C645.506 93.4522 646.644 94.7406 648.921 94.7406C651.617 94.7406 656.292 90.2225 662.964 81.1863C668.409 73.7737 671.123 68.6732 671.123 65.92L671.106 65.9023Z" fill="white" stroke="white" stroke-width="0.56"/>
<path d="M716.527 75.6976C716.527 76.2094 713.76 79.5274 708.244 85.6515C702.203 92.2875 697.073 95.6055 692.853 95.6055C690.104 95.6055 687.758 94.5466 685.797 92.4464C683.836 90.3285 682.855 87.8224 682.855 84.8926C682.855 81.5747 684.186 78.1508 686.847 74.5857C689.509 71.0383 693.098 67.985 697.598 65.4083C701.398 63.2022 704.497 62.0903 706.879 62.0903C709.768 62.0903 711.221 63.8199 711.221 67.2967C711.221 70.0147 710.311 72.7502 708.49 75.4682C706.668 78.1861 704.865 79.545 703.061 79.545C701.258 79.545 700.417 78.6626 700.417 76.8801C700.417 74.7799 702.221 72.8561 705.828 71.0736C708.612 69.697 709.995 67.8792 709.995 65.6201C709.995 63.8376 709.032 62.9551 707.124 62.9551C703.867 62.9551 699.875 66.2025 695.147 72.7149C690.402 79.2274 688.038 84.6985 688.038 89.1107C688.038 92.817 689.754 94.6701 693.221 94.6701C698.631 94.6701 705.951 88.5283 715.213 76.2271C715.721 75.5917 716.089 75.274 716.334 75.274C716.492 75.3093 716.562 75.4329 716.562 75.627L716.527 75.6976Z" fill="white" stroke="white" stroke-width="0.56"/>
<path d="M747.694 33.7642C747.379 34.3113 746.889 35.1231 746.224 36.1997C745.208 37.8587 743.685 40.3295 741.636 43.5946C740.655 45.2889 739.15 47.8303 737.118 51.2365L727.015 67.6853C723.653 73.1741 720.782 78.151 718.435 82.5985C715.809 87.5755 713.69 91.423 712.097 94.1409L711.326 95.3234C710.276 95.0939 709.225 94.9704 708.209 94.9704C707.352 94.9704 706.073 95.0939 704.392 95.3234C705.285 93.7879 706.283 92.0407 707.387 90.117L714.198 78.151C715.213 76.3685 716.737 73.6859 718.786 70.1032L740.34 33.7642C741.951 34.0818 743.142 34.2407 743.93 34.2407C744.718 34.2407 745.961 34.0818 747.694 33.7642ZM752.772 75.6978C752.737 75.8214 752.545 76.1391 752.177 76.6509L749.656 80.1453C742.249 90.4699 736.663 95.6234 732.899 95.6234C731.218 95.6234 729.729 95.041 728.434 93.9115C727.138 92.7643 726.49 91.4583 726.49 89.9934C726.49 88.7227 727.593 85.8989 729.782 81.522L729.834 81.2925C730.57 79.8277 730.955 78.7511 730.955 78.0275C730.955 77.1627 730.307 76.3509 729.011 75.592C727.523 76.2273 726.297 76.545 725.317 76.545C723.951 76.545 723.268 76.1567 723.268 75.3625C723.268 74.6919 723.916 74.3565 725.212 74.3565C726.507 74.3565 727.628 74.5507 728.679 74.9389C730.64 74.0741 733.774 71.1444 738.081 66.1322C740.393 63.4495 742.757 62.1082 745.191 62.1082C748.167 62.1082 749.656 63.5378 749.656 66.3792C749.656 68.2677 748.903 70.1561 747.397 72.0269C745.891 73.8977 744.385 74.833 742.897 74.833C741.216 74.833 740.375 74.0565 740.375 72.521C740.375 71.1091 741.654 69.5737 744.192 67.9676C745.243 67.297 745.786 66.344 745.786 65.1262C745.786 64.1731 745.173 63.7143 743.965 63.7143C742.284 63.7143 740.165 65.2144 737.626 68.1971C734.369 71.9386 731.725 74.2683 729.694 75.1684C733.774 77.0744 735.805 79.2629 735.805 81.7514C735.805 83.128 734.842 85.793 732.934 89.7463C732.111 91.4053 731.69 92.5525 731.69 93.1879C731.69 94.2115 732.338 94.7233 733.634 94.7233C737.311 94.7233 743.317 88.458 751.669 75.9273C751.949 75.539 752.195 75.3449 752.44 75.3449C752.702 75.3449 752.825 75.4684 752.825 75.6978H752.772Z" fill="white" stroke="white" stroke-width="0.56"/>
</g>
</svg>
